<mxfile host="app.diagrams.net" modified="2022-10-31T02:33:35.743Z" agent="5.0 (Windows NT 10.0; Win64; x64) AppleWebKit/537.36 (KHTML, like Gecko) Chrome/106.0.0.0 Safari/537.36" etag="jzFN31dmL8gPRh-lYz4E" version="20.5.1" type="github">
  <diagram name="Page-1" id="74e2e168-ea6b-b213-b513-2b3c1d86103e">
    <mxGraphModel dx="1185" dy="662" grid="1" gridSize="10" guides="1" tooltips="1" connect="1" arrows="1" fold="1" page="1" pageScale="1" pageWidth="1100" pageHeight="850" background="none" math="0" shadow="0">
      <root>
        <mxCell id="0" />
        <mxCell id="1" parent="0" />
        <mxCell id="UV4veWWtO02-F0cniwVC-3" value="" style="rounded=0;whiteSpace=wrap;html=1;" vertex="1" parent="1">
          <mxGeometry x="90" y="180" width="20" height="410" as="geometry" />
        </mxCell>
        <mxCell id="UV4veWWtO02-F0cniwVC-6" value="发送指令" style="endArrow=classic;html=1;rounded=0;exitX=1.15;exitY=0.054;exitDx=0;exitDy=0;exitPerimeter=0;entryX=0.05;entryY=0.231;entryDx=0;entryDy=0;entryPerimeter=0;" edge="1" parent="1" source="UV4veWWtO02-F0cniwVC-3" target="UV4veWWtO02-F0cniwVC-33">
          <mxGeometry width="50" height="50" relative="1" as="geometry">
            <mxPoint x="520" y="430" as="sourcePoint" />
            <mxPoint x="370" y="360" as="targetPoint" />
            <Array as="points">
              <mxPoint x="330" y="220" />
            </Array>
          </mxGeometry>
        </mxCell>
        <mxCell id="UV4veWWtO02-F0cniwVC-8" value="" style="rounded=0;whiteSpace=wrap;html=1;" vertex="1" parent="1">
          <mxGeometry x="459" y="180" width="20" height="410" as="geometry" />
        </mxCell>
        <mxCell id="UV4veWWtO02-F0cniwVC-9" value="RocketMq" style="rounded=0;whiteSpace=wrap;html=1;" vertex="1" parent="1">
          <mxGeometry x="426.5" y="150" width="85" height="20" as="geometry" />
        </mxCell>
        <mxCell id="UV4veWWtO02-F0cniwVC-10" value="" style="rounded=0;whiteSpace=wrap;html=1;" vertex="1" parent="1">
          <mxGeometry x="669" y="180" width="20" height="410" as="geometry" />
        </mxCell>
        <mxCell id="UV4veWWtO02-F0cniwVC-12" value="杨晨" style="rounded=0;whiteSpace=wrap;html=1;" vertex="1" parent="1">
          <mxGeometry x="636.5" y="150" width="85" height="20" as="geometry" />
        </mxCell>
        <mxCell id="UV4veWWtO02-F0cniwVC-13" value="" style="rounded=0;whiteSpace=wrap;html=1;" vertex="1" parent="1">
          <mxGeometry x="881.5" y="180" width="20" height="410" as="geometry" />
        </mxCell>
        <mxCell id="UV4veWWtO02-F0cniwVC-14" value="设备" style="rounded=0;whiteSpace=wrap;html=1;" vertex="1" parent="1">
          <mxGeometry x="849" y="150" width="85" height="20" as="geometry" />
        </mxCell>
        <mxCell id="UV4veWWtO02-F0cniwVC-17" value="消费" style="endArrow=classic;html=1;rounded=0;exitX=1.15;exitY=0.054;exitDx=0;exitDy=0;exitPerimeter=0;entryX=-0.05;entryY=0.193;entryDx=0;entryDy=0;entryPerimeter=0;" edge="1" parent="1" target="UV4veWWtO02-F0cniwVC-10">
          <mxGeometry width="50" height="50" relative="1" as="geometry">
            <mxPoint x="479" y="230" as="sourcePoint" />
            <mxPoint x="736" y="257.88" as="targetPoint" />
          </mxGeometry>
        </mxCell>
        <mxCell id="UV4veWWtO02-F0cniwVC-18" value="设备在线返回一条" style="endArrow=classic;html=1;rounded=0;entryX=1.2;entryY=0.378;entryDx=0;entryDy=0;entryPerimeter=0;" edge="1" parent="1" target="UV4veWWtO02-F0cniwVC-8">
          <mxGeometry width="50" height="50" relative="1" as="geometry">
            <mxPoint x="669" y="270" as="sourcePoint" />
            <mxPoint x="878" y="289.1300000000001" as="targetPoint" />
          </mxGeometry>
        </mxCell>
        <mxCell id="UV4veWWtO02-F0cniwVC-19" value="发送指令给设备" style="endArrow=classic;html=1;rounded=0;exitX=1.15;exitY=0.054;exitDx=0;exitDy=0;exitPerimeter=0;entryX=-0.05;entryY=0.193;entryDx=0;entryDy=0;entryPerimeter=0;" edge="1" parent="1">
          <mxGeometry width="50" height="50" relative="1" as="geometry">
            <mxPoint x="692.5" y="260" as="sourcePoint" />
            <mxPoint x="881.5" y="289.1300000000001" as="targetPoint" />
          </mxGeometry>
        </mxCell>
        <mxCell id="UV4veWWtO02-F0cniwVC-20" value="设备返回指令" style="endArrow=classic;html=1;rounded=0;entryX=1.15;entryY=0.327;entryDx=0;entryDy=0;entryPerimeter=0;" edge="1" parent="1" target="UV4veWWtO02-F0cniwVC-10">
          <mxGeometry width="50" height="50" relative="1" as="geometry">
            <mxPoint x="879" y="300" as="sourcePoint" />
            <mxPoint x="881.5" y="379.1300000000001" as="targetPoint" />
          </mxGeometry>
        </mxCell>
        <mxCell id="UV4veWWtO02-F0cniwVC-21" value="发送指令给设备" style="endArrow=classic;html=1;rounded=0;entryX=1;entryY=0.5;entryDx=0;entryDy=0;exitX=-0.05;exitY=0.344;exitDx=0;exitDy=0;exitPerimeter=0;" edge="1" parent="1" source="UV4veWWtO02-F0cniwVC-10" target="UV4veWWtO02-F0cniwVC-8">
          <mxGeometry width="50" height="50" relative="1" as="geometry">
            <mxPoint x="889" y="310" as="sourcePoint" />
            <mxPoint x="702" y="324.06999999999994" as="targetPoint" />
          </mxGeometry>
        </mxCell>
        <mxCell id="UV4veWWtO02-F0cniwVC-26" value="前端界面" style="text;html=1;strokeColor=none;fillColor=none;align=center;verticalAlign=middle;whiteSpace=wrap;rounded=0;fontSize=20;fontStyle=1" vertex="1" parent="1">
          <mxGeometry x="50" y="145" width="100" height="30" as="geometry" />
        </mxCell>
        <mxCell id="UV4veWWtO02-F0cniwVC-30" value="T1延迟" style="shape=curlyBracket;whiteSpace=wrap;html=1;rounded=1;fontSize=20;size=0.5;direction=east;" vertex="1" parent="1">
          <mxGeometry x="439" y="330" width="20" height="65" as="geometry" />
        </mxCell>
        <mxCell id="UV4veWWtO02-F0cniwVC-33" value="" style="rounded=0;whiteSpace=wrap;html=1;fontSize=14;" vertex="1" parent="1">
          <mxGeometry x="339" y="190" width="20" height="130" as="geometry" />
        </mxCell>
        <mxCell id="UV4veWWtO02-F0cniwVC-37" value="Producer生产者" style="text;html=1;strokeColor=none;fillColor=none;align=center;verticalAlign=middle;whiteSpace=wrap;rounded=0;fontSize=20;fontStyle=1" vertex="1" parent="1">
          <mxGeometry x="299" y="145" width="100" height="30" as="geometry" />
        </mxCell>
        <mxCell id="UV4veWWtO02-F0cniwVC-41" value="" style="rounded=0;whiteSpace=wrap;html=1;fontSize=14;" vertex="1" parent="1">
          <mxGeometry x="339" y="360" width="20" height="230" as="geometry" />
        </mxCell>
        <mxCell id="UV4veWWtO02-F0cniwVC-42" value="消费者" style="text;html=1;strokeColor=none;fillColor=none;align=center;verticalAlign=middle;whiteSpace=wrap;rounded=0;fontSize=14;" vertex="1" parent="1">
          <mxGeometry x="319" y="330" width="60" height="30" as="geometry" />
        </mxCell>
        <mxCell id="UV4veWWtO02-F0cniwVC-43" value="设备在线返回一条" style="endArrow=classic;html=1;rounded=0;exitX=-0.158;exitY=0.412;exitDx=0;exitDy=0;exitPerimeter=0;" edge="1" parent="1" source="UV4veWWtO02-F0cniwVC-8">
          <mxGeometry width="50" height="50" relative="1" as="geometry">
            <mxPoint x="441.9999999999998" y="409.9999999999999" as="sourcePoint" />
            <mxPoint x="360" y="410" as="targetPoint" />
          </mxGeometry>
        </mxCell>
        <mxCell id="UV4veWWtO02-F0cniwVC-44" value="设备在线返回一条" style="endArrow=classic;html=1;rounded=0;exitX=-0.158;exitY=0.412;exitDx=0;exitDy=0;exitPerimeter=0;" edge="1" parent="1">
          <mxGeometry width="50" height="50" relative="1" as="geometry">
            <mxPoint x="454.84000000000015" y="410.00000000000006" as="sourcePoint" />
            <mxPoint x="359" y="471.08" as="targetPoint" />
          </mxGeometry>
        </mxCell>
      </root>
    </mxGraphModel>
  </diagram>
</mxfile>
